<svg xmlns="http://www.w3.org/2000/svg" viewBox="0 0 512 512">
  <defs>
    <linearGradient id="grad" x1="0%" y1="0%" x2="100%" y2="100%">
      <stop offset="0%" style="stop-color:#db2777;stop-opacity:1" />
      <stop offset="100%" style="stop-color:#be123c;stop-opacity:1" />
    </linearGradient>
    <filter id="shadow" x="-20%" y="-20%" width="140%" height="140%">
      <feGaussianBlur in="SourceAlpha" stdDeviation="15" result="blur" />
      <feOffset in="blur" dx="0" dy="10" result="offsetBlur" />
      <feFlood flood-color="#000000" flood-opacity="0.2" />
      <feComposite in2="offsetBlur" operator="in" />
      <feMerge>
        <feMergeNode />
        <feMergeNode in="SourceGraphic" />
      </feMerge>
    </filter>
  </defs>
  
  <!-- Background -->
  <rect x="0" y="0" width="512" height="512" rx="120" ry="120" fill="url(#grad)" />
  
  <!-- Sparkles Icon (Simplified Lucide representation) -->
  <g transform="translate(106, 106) scale(15)" fill="#ffffff" fill-opacity="0.9">
     <path d="M9.937 15.5A2 2 0 0 0 8.5 14.063l-6.135-1.582a.5.5 0 0 1 0-.962L8.5 9.936A2 2 0 0 0 9.937 8.5l1.582-6.135a.5.5 0 0 1 .963 0L14.063 8.5A2 2 0 0 0 15.5 9.937l6.135 1.581a.5.5 0 0 1 0 .964L15.5 14.063a2 2 0 0 0-1.437 1.437l-1.582 6.135a.5.5 0 0 1-.963 0z"/>
     <path d="M20 3v4" stroke="white" stroke-width="1.5" stroke-linecap="round"/>
     <path d="M22 5h-4" stroke="white" stroke-width="1.5" stroke-linecap="round"/>
  </g>
  
  <!-- Small Stars -->
  <path d="M380 120 L385 100 L405 95 L385 90 L380 70 L375 90 L355 95 L375 100 Z" fill="white" opacity="0.8"/>
  <path d="M120 400 L122 390 L132 388 L122 386 L120 376 L118 386 L108 388 L118 390 Z" fill="white" opacity="0.6"/>

</svg>
